<svg xmlns="http://www.w3.org/2000/svg" viewBox="0 0 1024 1024">
  <defs>
    <linearGradient id="bg" x1="0" y1="0" x2="1" y2="1">
      <stop offset="0%" stop-color="#238f86"/>
      <stop offset="58%" stop-color="#95c9bb"/>
      <stop offset="100%" stop-color="#d8ebe5"/>
    </linearGradient>
    <radialGradient id="wash" cx="50%" cy="45%" r="55%">
      <stop offset="0%" stop-color="#ffffff" stop-opacity="0.26"/>
      <stop offset="100%" stop-color="#ffffff" stop-opacity="0"/>
    </radialGradient>
  </defs>

  <rect width="1024" height="1024" rx="224" fill="url(#bg)"/>
  <rect width="1024" height="1024" rx="224" fill="url(#wash)"/>
  <circle cx="512" cy="532" r="286" fill="#ffffff" opacity="0.1"/>

  <g fill="#fbfffd">
    <circle cx="512" cy="246" r="18"/>
    <circle cx="587" cy="260" r="18"/>
    <circle cx="654" cy="299" r="18"/>
    <circle cx="705" cy="358" r="18"/>
    <circle cx="738" cy="429" r="18"/>
    <circle cx="746" cy="507" r="18"/>
    <circle cx="727" cy="583" r="18"/>
    <circle cx="685" cy="648" r="18"/>
    <circle cx="624" cy="697" r="18"/>
    <circle cx="551" cy="724" r="18"/>
    <circle cx="473" cy="724" r="18"/>
    <circle cx="400" cy="697" r="18"/>
    <circle cx="339" cy="648" r="18"/>
    <circle cx="297" cy="583" r="18"/>
    <circle cx="278" cy="507" r="18"/>
    <circle cx="286" cy="429" r="18"/>
    <circle cx="319" cy="358" r="18"/>
    <circle cx="370" cy="299" r="18"/>
    <circle cx="437" cy="260" r="18"/>
  </g>

  <g fill="#fbfffd">
    <ellipse cx="512" cy="452" rx="56" ry="138"/>
    <ellipse cx="407" cy="550" rx="58" ry="142" transform="rotate(-42 407 550)"/>
    <ellipse cx="617" cy="550" rx="58" ry="142" transform="rotate(42 617 550)"/>
    <ellipse cx="512" cy="650" rx="182" ry="48"/>
  </g>
</svg>
